<svg width="226" height="123" viewBox="0 0 226 123" fill="none" xmlns="http://www.w3.org/2000/svg">
<circle cx="50" cy="73" r="50" fill="#46E2A1"/>
<circle cx="77" cy="50" r="50" fill="#20D389"/>
<g filter="url(#filter0_d_2_8)">
<path d="M48.3828 50.5625L43.4609 79H38.2266L43.168 50.5625H48.3828ZM56.957 50.5625L56.2148 54.8008H33.9688L34.7109 50.5625H56.957ZM79.8281 64L79.6328 65.4453C79.3724 67.2552 78.8906 69 78.1875 70.6797C77.4844 72.3594 76.5599 73.8633 75.4141 75.1914C74.2682 76.5065 72.9076 77.5482 71.332 78.3164C69.7565 79.0716 67.9661 79.4297 65.9609 79.3906C64.0469 79.3516 62.4323 78.9349 61.1172 78.1406C59.8021 77.3333 58.7604 76.2656 57.9922 74.9375C57.237 73.6094 56.7292 72.1315 56.4688 70.5039C56.2214 68.8633 56.2018 67.2031 56.4102 65.5234L56.6055 64.0586C56.8659 62.2617 57.3542 60.5299 58.0703 58.8633C58.7865 57.1836 59.7174 55.6862 60.8633 54.3711C62.0091 53.043 63.3698 52.0013 64.9453 51.2461C66.5339 50.4909 68.3177 50.1328 70.2969 50.1719C72.2109 50.1979 73.8255 50.6146 75.1406 51.4219C76.4557 52.2161 77.4909 53.2773 78.2461 54.6055C79.0013 55.9336 79.5026 57.4115 79.75 59.0391C80.0104 60.6667 80.0365 62.3203 79.8281 64ZM74.3398 65.5234L74.5352 64C74.6523 63.0625 74.7109 62.0599 74.7109 60.9922C74.7109 59.9115 74.5742 58.8893 74.3008 57.9258C74.0273 56.9492 73.5521 56.1484 72.875 55.5234C72.1979 54.8854 71.2409 54.5404 70.0039 54.4883C68.7018 54.4362 67.5755 54.6966 66.625 55.2695C65.6745 55.8294 64.8737 56.5911 64.2227 57.5547C63.5846 58.5052 63.0768 59.5469 62.6992 60.6797C62.3346 61.8125 62.0742 62.9258 61.918 64.0195L61.7227 65.543C61.6055 66.4544 61.5469 67.4505 61.5469 68.5312C61.5469 69.612 61.6836 70.6471 61.957 71.6367C62.2305 72.6133 62.7057 73.4271 63.3828 74.0781C64.0599 74.7161 65.0169 75.0547 66.2539 75.0938C67.569 75.1458 68.7018 74.8854 69.6523 74.3125C70.6029 73.7396 71.3971 72.9779 72.0352 72.0273C72.6732 71.0638 73.181 70.0156 73.5586 68.8828C73.9362 67.737 74.1966 66.6172 74.3398 65.5234ZM93.7539 64.7812L93.0312 68.8633H82.6406L83.3438 64.7812H93.7539ZM104.477 79H98.2266L98.9883 74.7812L104.633 74.8008C106.469 74.8008 108.025 74.3776 109.301 73.5312C110.59 72.6719 111.605 71.5391 112.348 70.1328C113.103 68.7135 113.611 67.1641 113.871 65.4844L114.047 64C114.19 62.9583 114.229 61.9036 114.164 60.8359C114.112 59.7682 113.904 58.7917 113.539 57.9062C113.174 57.0078 112.608 56.2786 111.84 55.7188C111.072 55.1589 110.049 54.8594 108.773 54.8203L102.309 54.8008L103.051 50.5625L108.93 50.582C110.831 50.6211 112.478 51.0117 113.871 51.7539C115.277 52.4831 116.417 53.4727 117.289 54.7227C118.174 55.9727 118.786 57.3984 119.125 59C119.477 60.6016 119.548 62.2812 119.34 64.0391L119.164 65.5039C118.904 67.418 118.363 69.2018 117.543 70.8555C116.736 72.4961 115.694 73.9284 114.418 75.1523C113.142 76.3633 111.664 77.3138 109.984 78.0039C108.305 78.681 106.469 79.013 104.477 79ZM106.117 50.5625L101.176 79H95.9219L100.844 50.5625H106.117ZM146.117 64L145.922 65.4453C145.661 67.2552 145.18 69 144.477 70.6797C143.773 72.3594 142.849 73.8633 141.703 75.1914C140.557 76.5065 139.197 77.5482 137.621 78.3164C136.046 79.0716 134.255 79.4297 132.25 79.3906C130.336 79.3516 128.721 78.9349 127.406 78.1406C126.091 77.3333 125.049 76.2656 124.281 74.9375C123.526 73.6094 123.018 72.1315 122.758 70.5039C122.51 68.8633 122.491 67.2031 122.699 65.5234L122.895 64.0586C123.155 62.2617 123.643 60.5299 124.359 58.8633C125.076 57.1836 126.007 55.6862 127.152 54.3711C128.298 53.043 129.659 52.0013 131.234 51.2461C132.823 50.4909 134.607 50.1328 136.586 50.1719C138.5 50.1979 140.115 50.6146 141.43 51.4219C142.745 52.2161 143.78 53.2773 144.535 54.6055C145.29 55.9336 145.792 57.4115 146.039 59.0391C146.299 60.6667 146.326 62.3203 146.117 64ZM140.629 65.5234L140.824 64C140.941 63.0625 141 62.0599 141 60.9922C141 59.9115 140.863 58.8893 140.59 57.9258C140.316 56.9492 139.841 56.1484 139.164 55.5234C138.487 54.8854 137.53 54.5404 136.293 54.4883C134.991 54.4362 133.865 54.6966 132.914 55.2695C131.964 55.8294 131.163 56.5911 130.512 57.5547C129.874 58.5052 129.366 59.5469 128.988 60.6797C128.624 61.8125 128.363 62.9258 128.207 64.0195L128.012 65.543C127.895 66.4544 127.836 67.4505 127.836 68.5312C127.836 69.612 127.973 70.6471 128.246 71.6367C128.52 72.6133 128.995 73.4271 129.672 74.0781C130.349 74.7161 131.306 75.0547 132.543 75.0938C133.858 75.1458 134.991 74.8854 135.941 74.3125C136.892 73.7396 137.686 72.9779 138.324 72.0273C138.962 71.0638 139.47 70.0156 139.848 68.8828C140.225 67.737 140.486 66.6172 140.629 65.5234ZM176.078 74.7812L175.336 79H161.43L162.172 74.7812H176.078ZM167.992 50.5625L163.051 79H157.797L162.719 50.5625H167.992ZM187.387 57.8672L183.734 79H178.676L182.348 57.8672H187.387ZM182.973 52.4375C182.96 51.6172 183.227 50.9531 183.773 50.4453C184.333 49.9245 185.017 49.6576 185.824 49.6445C186.592 49.6315 187.257 49.8659 187.816 50.3477C188.389 50.8164 188.676 51.4544 188.676 52.2617C188.689 53.069 188.415 53.7266 187.855 54.2344C187.296 54.7422 186.618 55.0026 185.824 55.0156C185.056 55.0286 184.392 54.8008 183.832 54.332C183.272 53.8633 182.986 53.2318 182.973 52.4375ZM200.902 73.1016C201.007 72.4375 200.85 71.9232 200.434 71.5586C200.017 71.181 199.496 70.8945 198.871 70.6992C198.259 70.5039 197.712 70.3477 197.23 70.2305C196.449 70.0221 195.661 69.7617 194.867 69.4492C194.086 69.1367 193.37 68.7461 192.719 68.2773C192.081 67.7956 191.573 67.2096 191.195 66.5195C190.818 65.8294 190.648 65.0091 190.688 64.0586C190.74 62.9388 191.026 61.9688 191.547 61.1484C192.081 60.3151 192.764 59.625 193.598 59.0781C194.444 58.5312 195.368 58.1211 196.371 57.8477C197.374 57.5742 198.376 57.4505 199.379 57.4766C200.759 57.4896 202.035 57.75 203.207 58.2578C204.392 58.7656 205.342 59.5208 206.059 60.5234C206.788 61.526 207.146 62.763 207.133 64.2344L202.133 64.2148C202.159 63.6029 202.055 63.069 201.82 62.6133C201.599 62.1576 201.267 61.8125 200.824 61.5781C200.382 61.3307 199.835 61.2005 199.184 61.1875C198.637 61.1875 198.096 61.2852 197.562 61.4805C197.042 61.6758 196.592 61.9688 196.215 62.3594C195.837 62.75 195.603 63.2383 195.512 63.8242C195.434 64.293 195.499 64.6836 195.707 64.9961C195.928 65.2956 196.221 65.5365 196.586 65.7188C196.964 65.901 197.361 66.0508 197.777 66.168C198.194 66.2852 198.572 66.3828 198.91 66.4609C200.03 66.7474 201.13 67.125 202.211 67.5938C203.292 68.0625 204.171 68.7135 204.848 69.5469C205.538 70.3802 205.857 71.4805 205.805 72.8477C205.753 74.0065 205.44 75.0091 204.867 75.8555C204.294 76.6888 203.559 77.3724 202.66 77.9062C201.775 78.4271 200.805 78.8047 199.75 79.0391C198.708 79.2865 197.686 79.4036 196.684 79.3906C195.277 79.3646 193.956 79.0781 192.719 78.5312C191.495 77.9844 190.505 77.1901 189.75 76.1484C188.995 75.1068 188.617 73.8307 188.617 72.3203L193.402 72.3398C193.415 73.056 193.559 73.6615 193.832 74.1562C194.118 74.651 194.522 75.0286 195.043 75.2891C195.577 75.5365 196.195 75.6602 196.898 75.6602C197.471 75.6732 198.044 75.6016 198.617 75.4453C199.19 75.276 199.685 75.0026 200.102 74.625C200.518 74.2344 200.785 73.7266 200.902 73.1016ZM221.84 57.8672L221.195 61.5781H209.418L210.062 57.8672H221.84ZM214.105 52.6719H219.145L215.688 72.9453C215.635 73.401 215.635 73.7917 215.688 74.1172C215.753 74.4427 215.902 74.6966 216.137 74.8789C216.384 75.0612 216.755 75.1589 217.25 75.1719C217.523 75.1849 217.797 75.1719 218.07 75.1328C218.357 75.0938 218.637 75.0612 218.91 75.0352L218.559 78.9414C218.064 79.0846 217.562 79.1888 217.055 79.2539C216.547 79.332 216.033 79.3711 215.512 79.3711C214.301 79.3451 213.311 79.0716 212.543 78.5508C211.788 78.0299 211.254 77.3203 210.941 76.4219C210.629 75.5104 210.525 74.4753 210.629 73.3164L214.105 52.6719Z" fill="white"/>
</g>
<defs>
<filter id="filter0_d_2_8" x="29.9688" y="49.625" width="195.871" height="37.8242" filterUnits="userSpaceOnUse" color-interpolation-filters="sRGB">
<feFlood flood-opacity="0" result="BackgroundImageFix"/>
<feColorMatrix in="SourceAlpha" type="matrix" values="0 0 0 0 0 0 0 0 0 0 0 0 0 0 0 0 0 0 127 0" result="hardAlpha"/>
<feOffset dy="4"/>
<feGaussianBlur stdDeviation="2"/>
<feComposite in2="hardAlpha" operator="out"/>
<feColorMatrix type="matrix" values="0 0 0 0 0 0 0 0 0 0 0 0 0 0 0 0 0 0 0.25 0"/>
<feBlend mode="normal" in2="BackgroundImageFix" result="effect1_dropShadow_2_8"/>
<feBlend mode="normal" in="SourceGraphic" in2="effect1_dropShadow_2_8" result="shape"/>
</filter>
</defs>
</svg>
